# xmcd CD database file
#
# Track frame offsets:
#	150
#	23512
#	48712
#
# Disc length: 960 seconds
#
# Revision: 0
# Processed by: cddbd v1.5.1PL0 Copyright (c) Steve Scherf et al.
# Submitted via: CDex 1.51
#
DISCID=1c03be03
DTITLE=PEARL - Crying Bird (Single)
DYEAR=1992
DGENRE=Pop
TTITLE0=Crying Bird
TTITLE1=Tapestry
TTITLE2=Crying Bird（オリジナル・カラオケ）
EXTD=YEAR: 1992
EXTT0=
EXTT1=
EXTT2=
PLAYORDER=
